<?xml version="1.0" standalone="no"?>
<!DOCTYPE svg PUBLIC "-//W3C//DTD SVG 20010904//EN"
 "http://www.w3.org/TR/2001/REC-SVG-20010904/DTD/svg10.dtd">
<svg version="1.0" xmlns="http://www.w3.org/2000/svg"
 width="2000.000000pt" height="2000.000000pt" viewBox="0 0 2000.000000 2000.000000"
 preserveAspectRatio="xMidYMid meet">
<metadata>
Created by potrace 1.11, written by Peter Selinger 2001-2013
</metadata>
<g transform="translate(0.000000,2000.000000) scale(0.100000,-0.100000)"
fill="#000000" stroke="none">
<path d="M4494 11746 c-97 -45 -165 -142 -172 -247 -4 -48 -1 -60 17 -78 46
-46 116 -17 126 53 9 56 36 101 77 126 32 20 49 20 864 18 816 -3 832 -3 854
-23 13 -11 31 -38 41 -60 17 -36 19 -71 19 -360 l0 -320 -30 -17 c-25 -14 -30
-23 -30 -57 0 -31 6 -44 30 -64 26 -23 30 -32 30 -79 0 -29 -7 -71 -14 -93
-12 -34 -12 -44 0 -67 19 -37 18 -186 -1 -212 -8 -11 -15 -29 -15 -41 0 -12 7
-30 15 -41 11 -14 14 -49 14 -139 0 -90 -3 -125 -14 -139 -19 -26 -19 -61 1
-91 16 -24 15 -128 -1 -231 -4 -26 -3 -44 4 -48 6 -4 11 -37 11 -77 0 -64 -2
-70 -24 -81 -29 -13 -50 -58 -41 -87 3 -11 19 -31 36 -45 l29 -25 0 -293 c0
-285 -1 -295 -22 -338 -43 -85 15 -80 -901 -80 -875 0 -845 -2 -897 55 l-25
27 -5 1344 -5 1343 -22 22 c-27 27 -75 29 -103 4 -20 -18 -20 -23 -18 -1374
l3 -1356 27 -51 c15 -28 48 -70 74 -93 85 -75 47 -72 985 -69 l834 3 50 25
c69 34 130 99 152 163 17 49 18 124 18 1512 0 1402 -1 1462 -19 1514 -23 66
-74 124 -140 159 l-51 27 -855 3 -855 2 -51 -24z"/>
<path d="M3540 11511 c-289 -54 -540 -105 -557 -115 -53 -27 -103 -76 -128
-127 -43 -84 -41 -126 14 -424 27 -148 136 -733 241 -1300 104 -566 198 -1050
207 -1074 34 -92 136 -169 236 -179 33 -3 134 11 310 43 231 42 265 51 285 72
12 13 22 35 22 49 0 30 -41 74 -70 74 -11 0 -120 -20 -242 -45 -262 -53 -313
-56 -357 -20 -16 14 -37 45 -45 68 -18 46 -486 2567 -486 2613 0 35 30 87 62
108 21 13 237 56 843 166 202 37 233 45 253 67 12 13 22 35 22 49 0 29 -41 74
-67 73 -10 0 -254 -45 -543 -98z"/>
<path d="M6130 11098 c-31 -33 -27 -91 7 -118 52 -40 123 -6 123 59 0 42 -7
54 -37 70 -34 17 -70 13 -93 -11z"/>
<path d="M5779 11039 c-49 -18 -62 -95 -23 -133 20 -20 73 -21 101 -1 45 32
36 102 -16 130 -17 8 -31 15 -33 14 -2 0 -15 -5 -29 -10z"/>
<path d="M8631 11019 c-69 -13 -142 -60 -178 -113 -63 -92 -66 -116 -71 -483
-4 -364 2 -441 45 -536 55 -123 153 -172 326 -165 181 7 266 73 314 243 20 68
29 548 15 708 -21 217 -93 316 -257 346 -67 13 -131 13 -194 0z m204 -153 c14
-9 33 -31 42 -49 16 -29 18 -69 18 -442 0 -376 -1 -413 -18 -443 -27 -49 -71
-72 -140 -72 -81 0 -121 21 -149 78 -23 47 -23 51 -23 432 0 410 3 435 49 479
13 12 36 26 52 31 41 13 140 5 169 -14z"/>
<path d="M7166 10978 c-3 -24 -8 -245 -11 -493 -3 -247 -8 -519 -11 -602 l-7
-153 75 0 76 0 7 455 c4 251 9 454 11 452 2 -1 46 -189 99 -417 53 -228 100
-432 106 -452 10 -37 11 -38 59 -38 38 0 50 4 54 18 3 9 51 213 106 452 55
239 102 435 104 437 3 4 16 -608 16 -784 l0 -123 76 0 76 0 -6 98 c-3 53 -8
295 -11 537 -3 242 -8 488 -11 548 l-6 107 -83 0 c-71 0 -84 -3 -89 -17 -3
-10 -53 -236 -111 -503 -58 -267 -108 -492 -111 -500 -4 -8 -54 206 -113 475
-59 270 -111 502 -114 518 -7 27 -8 27 -92 27 l-84 0 -5 -42z"/>
<path d="M9470 10374 l0 -646 223 4 c206 3 225 5 272 26 68 31 108 73 141 146
24 52 29 77 32 167 7 178 -35 272 -144 325 l-58 28 34 10 c105 30 162 184 130
351 -24 127 -105 203 -240 224 -36 6 -138 11 -227 11 l-163 0 0 -646z m406
487 c61 -28 77 -70 72 -185 -7 -156 -39 -187 -200 -194 l-98 -4 0 201 0 201
93 0 c68 0 103 -5 133 -19z m-6 -543 c32 -16 52 -36 70 -68 23 -41 25 -56 25
-160 0 -97 -3 -120 -20 -149 -38 -64 -64 -75 -186 -79 l-109 -4 0 241 0 241
88 0 c71 0 96 -4 132 -22z"/>
<path d="M10520 10375 l0 -645 90 0 90 0 0 645 0 645 -90 0 -90 0 0 -645z"/>
<path d="M11120 10375 l0 -645 255 0 255 0 0 65 0 65 -165 0 -165 0 0 580 0
580 -90 0 -90 0 0 -645z"/>
<path d="M11960 10375 l0 -645 250 0 250 0 0 65 0 65 -160 0 -160 0 0 235 0
235 130 0 131 0 -3 63 -3 62 -127 3 -128 3 0 209 0 209 158 3 157 3 0 65 0 65
-247 3 -248 2 0 -645z"/>
<path d="M13390 10375 l0 -647 203 5 c214 4 249 10 315 55 55 37 88 84 114
162 20 60 22 90 26 387 2 209 0 348 -8 395 -14 96 -54 173 -108 215 -72 54
-123 65 -344 70 l-198 5 0 -647z m407 479 c15 -11 37 -38 48 -60 18 -36 20
-63 23 -350 4 -336 -6 -472 -36 -513 -41 -55 -67 -66 -168 -69 l-94 -4 0 512
0 512 99 -4 c81 -2 105 -7 128 -24z"/>
<path d="M14440 10375 l0 -645 250 0 250 0 0 65 0 65 -165 0 -165 0 0 235 0
235 130 0 130 0 0 65 0 65 -130 0 -130 0 0 210 0 210 160 0 160 0 0 70 0 70
-245 0 -245 0 0 -645z"/>
<path d="M15230 11013 c1 -5 65 -294 143 -643 l143 -635 79 -3 80 -2 139 632
c76 348 141 639 144 646 3 9 -16 12 -76 12 -45 0 -83 -3 -85 -7 -3 -5 -47
-214 -98 -465 -52 -252 -97 -454 -100 -450 -6 6 -199 896 -199 915 0 4 -38 7
-85 7 -47 0 -85 -3 -85 -7z"/>
<path d="M6020 10863 c-33 -12 -60 -47 -60 -78 0 -70 96 -103 139 -49 29 37
26 70 -8 105 -29 29 -42 33 -71 22z"/>
<path d="M5454 10819 c-54 -19 -64 -88 -20 -126 36 -31 61 -29 98 7 24 25 29
36 23 58 -13 51 -57 78 -101 61z"/>
<path d="M5715 10733 c-41 -40 -38 -96 7 -127 52 -36 118 2 118 68 0 61 -84
101 -125 59z"/>
<path d="M6137 10610 c-37 -29 -38 -86 -2 -120 20 -19 31 -22 62 -17 46 8 63
29 63 76 -1 47 -20 71 -61 77 -25 4 -41 0 -62 -16z"/>
<path d="M5965 10578 c-31 -16 -45 -39 -45 -71 0 -40 15 -63 49 -75 59 -21
124 42 105 101 -6 18 -60 57 -79 57 -5 0 -19 -6 -30 -12z"/>
<path d="M5501 10514 c-28 -35 -26 -69 4 -99 49 -50 125 -20 125 50 0 72 -86
104 -129 49z"/>
<path d="M5216 10477 c-30 -30 -34 -71 -10 -105 20 -29 85 -31 114 -2 42 42
15 114 -47 126 -26 5 -37 1 -57 -19z"/>
<path d="M5788 10463 c-49 -31 -46 -94 6 -128 46 -30 109 8 109 66 0 58 -66
93 -115 62z"/>
<path d="M6130 10360 c-39 -39 -18 -121 35 -134 32 -8 83 18 94 47 10 28 -3
75 -26 93 -27 20 -80 17 -103 -6z"/>
<path d="M5665 10285 c-14 -13 -25 -36 -25 -50 0 -33 41 -75 74 -75 39 0 57
11 71 43 34 81 -59 144 -120 82z"/>
<path d="M5950 10280 c-30 -30 -27 -83 6 -109 35 -28 69 -26 99 4 30 30 32 64
4 99 -26 33 -79 36 -109 6z"/>
<path d="M5402 10247 c-47 -50 -15 -127 52 -127 26 0 40 7 56 27 57 73 -45
167 -108 100z"/>
<path d="M5142 10104 c-17 -12 -22 -25 -22 -59 0 -34 5 -47 22 -59 63 -44 144
11 117 81 -19 51 -73 68 -117 37z"/>
<path d="M5642 10113 c-21 -8 -43 -61 -36 -88 21 -84 148 -67 148 20 0 57 -55
91 -112 68z"/>
<path d="M5875 10095 c-30 -30 -32 -64 -4 -99 43 -54 129 -23 129 47 0 69 -77
101 -125 52z"/>
<path d="M5430 9973 c-56 -21 -70 -96 -24 -132 31 -24 43 -26 78 -10 32 15 52
69 37 98 -21 38 -58 56 -91 44z"/>
<path d="M5957 9920 c-34 -27 -37 -80 -7 -110 30 -30 83 -27 109 6 26 33 27
65 4 93 -27 32 -73 37 -106 11z"/>
<path d="M5672 9907 c-45 -47 -11 -127 53 -127 37 0 75 37 75 74 0 67 -83 101
-128 53z"/>
<path d="M6130 9840 c-30 -30 -27 -83 6 -109 15 -12 37 -21 49 -21 38 0 75 37
75 76 0 45 -29 74 -75 74 -22 0 -43 -8 -55 -20z"/>
<path d="M5792 9754 c-49 -34 -44 -102 9 -129 38 -20 42 -19 78 11 21 17 31
35 31 54 0 59 -71 98 -118 64z"/>
<path d="M5228 9734 c-50 -27 -48 -104 3 -133 56 -31 117 18 105 85 -6 28 -14
38 -41 50 -40 17 -34 17 -67 -2z"/>
<path d="M5512 9677 c-46 -49 -12 -127 55 -127 36 0 73 38 73 75 0 65 -84 99
-128 52z"/>
<path d="M5941 9634 c-27 -35 -27 -75 2 -101 53 -50 127 -20 127 52 0 70 -87
103 -129 49z"/>
<path d="M6130 9600 c-28 -28 -26 -81 3 -108 48 -45 127 -11 127 54 0 45 -29
74 -75 74 -22 0 -43 -8 -55 -20z"/>
<path d="M5715 9475 c-31 -30 -32 -66 -2 -101 55 -64 156 -6 126 73 -21 56
-82 71 -124 28z"/>
<path d="M11561 9456 c-21 -25 -4 -58 27 -54 23 2 27 8 27 33 0 23 -5 31 -21
33 -11 2 -26 -4 -33 -12z"/>
<path d="M7120 9205 l0 -245 25 0 25 0 2 198 3 197 88 -173 c65 -128 92 -172
104 -170 9 2 53 74 104 173 l89 170 0 -197 0 -198 25 0 25 0 0 245 0 245 -33
0 c-32 0 -33 -2 -121 -177 l-88 -177 -90 177 c-90 176 -91 177 -124 177 l-34
0 0 -245z"/>
<path d="M7760 9205 l0 -245 30 0 30 0 2 190 3 190 143 -190 c129 -173 145
-190 172 -190 l30 0 0 245 0 245 -30 0 -30 0 -2 -192 -3 -192 -144 192 c-128
172 -146 192 -172 192 l-29 0 0 -245z"/>
<path d="M8448 9437 c-110 -36 -173 -124 -173 -237 2 -179 186 -293 350 -216
65 30 78 45 60 70 -14 18 -15 18 -40 -2 -14 -11 -47 -25 -75 -32 -123 -29
-240 61 -240 185 0 156 183 245 313 153 29 -21 30 -21 43 -3 20 27 19 29 -37
59 -59 33 -144 42 -201 23z"/>
<path d="M9000 9205 l0 -245 25 0 25 0 0 245 0 245 -25 0 -25 0 0 -245z"/>
<path d="M12955 9434 c-124 -44 -191 -178 -153 -305 27 -94 134 -169 238 -169
56 0 127 26 162 57 17 15 17 18 2 34 -14 16 -18 15 -62 -9 -83 -47 -181 -32
-243 35 -40 43 -50 69 -50 128 0 76 39 138 111 175 45 24 130 18 181 -12 45
-26 47 -27 63 -9 15 16 15 19 -3 35 -29 27 -117 56 -164 55 -23 0 -60 -7 -82
-15z"/>
<path d="M5455 9410 c-33 -13 -46 -36 -43 -76 6 -76 84 -96 131 -33 27 38 10
93 -35 108 -17 6 -31 11 -32 10 -1 0 -10 -4 -21 -9z"/>
<path d="M11300 9365 c0 -41 -2 -45 -25 -45 -20 0 -25 -5 -25 -25 0 -20 5 -25
24 -25 24 0 24 0 28 -129 3 -121 5 -131 27 -155 27 -29 84 -35 124 -15 30 16
30 15 18 37 -10 18 -14 19 -41 9 -57 -22 -65 -6 -68 132 l-3 121 56 0 c52 0
55 1 55 25 0 24 -3 25 -55 25 l-55 0 0 45 c0 43 -1 45 -30 45 -29 0 -30 -2
-30 -45z"/>
<path d="M14200 9366 c0 -41 -2 -45 -27 -48 -20 -2 -28 -9 -28 -23 0 -14 8
-21 28 -23 l27 -3 0 -130 c0 -126 1 -131 26 -156 22 -22 32 -25 75 -21 58 6
74 17 64 47 -5 17 -10 19 -25 11 -27 -15 -56 -12 -74 6 -13 12 -16 39 -16 130
l0 114 61 0 c57 0 60 1 57 23 -3 19 -10 22 -60 25 l-58 3 0 44 c0 41 -2 45
-25 45 -23 0 -25 -4 -25 -44z"/>
<path d="M5982 9357 c-47 -50 -15 -127 52 -127 39 0 76 37 76 75 0 65 -84 99
-128 52z"/>
<path d="M9197 9323 c-4 -3 -7 -87 -7 -185 l0 -178 30 0 30 0 0 113 c0 93 3
117 20 144 24 40 50 54 100 55 86 1 110 -44 110 -209 l0 -103 25 0 25 0 0 130
c0 144 -11 187 -54 215 -58 38 -157 27 -203 -23 l-23 -25 0 37 c0 31 -3 36
-23 36 -13 0 -27 -3 -30 -7z"/>
<path d="M9650 9146 l0 -186 30 0 30 0 0 121 0 121 34 34 c30 30 40 34 85 34
42 0 57 -5 76 -25 24 -23 25 -29 25 -155 l0 -130 30 0 30 0 0 128 c0 151 -15
198 -73 225 -60 29 -132 19 -177 -23 l-29 -27 -3 31 c-2 25 -8 32 -30 34 l-28
3 0 -185z"/>
<path d="M10193 9319 c-77 -22 -132 -117 -118 -205 24 -164 257 -212 340 -70
27 47 34 122 14 173 -32 86 -137 131 -236 102z m146 -66 c62 -46 65 -151 6
-210 -28 -28 -40 -33 -81 -33 -85 1 -134 48 -134 130 0 57 16 88 60 118 42 28
106 26 149 -5z"/>
<path d="M10480 9323 c0 -4 32 -88 71 -185 68 -170 72 -178 99 -178 26 0 30 7
93 168 36 92 69 175 73 185 6 16 2 18 -22 15 -27 -3 -32 -11 -84 -150 -30 -82
-57 -148 -60 -148 -3 0 -30 66 -60 148 -52 137 -57 147 -83 150 -15 2 -27 0
-27 -5z"/>
<path d="M10970 9324 c-86 -31 -103 -47 -79 -71 7 -7 21 -5 47 8 81 42 172 12
172 -57 l0 -34 -85 0 c-126 0 -165 -26 -165 -107 1 -66 46 -103 128 -103 36 0
59 7 86 25 l36 24 0 -24 c0 -21 5 -25 30 -25 l30 0 -1 128 c0 141 -11 185 -51
215 -27 20 -116 33 -148 21z m140 -225 c0 -39 -47 -89 -87 -90 -80 -3 -113 15
-113 62 0 44 32 59 122 59 l78 0 0 -31z"/>
<path d="M11560 9146 l0 -186 25 0 25 0 0 175 c0 96 0 178 0 183 0 4 -11 8
-25 10 l-25 3 0 -185z"/>
<path d="M11810 9308 c-104 -53 -132 -192 -58 -282 38 -46 81 -66 143 -66 60
0 103 19 142 63 79 90 47 239 -61 288 -55 25 -112 24 -166 -3z m147 -45 c64
-30 89 -126 51 -196 -15 -29 -70 -57 -111 -57 -78 0 -130 54 -130 136 0 103
96 162 190 117z"/>
<path d="M12180 9145 l0 -185 25 0 c25 0 25 0 25 100 0 157 35 213 131 212 82
-1 99 -33 99 -192 l0 -120 25 0 c25 0 25 1 27 93 2 180 1 192 -27 226 -52 61
-156 66 -220 9 l-35 -30 0 36 c0 32 -3 36 -25 36 l-25 0 0 -185z"/>
<path d="M13380 9308 c-135 -69 -131 -277 7 -334 62 -26 147 -16 199 25 20 15
21 21 11 36 -12 16 -15 16 -48 -4 -50 -31 -128 -29 -167 4 -17 14 -35 39 -41
55 l-10 30 151 0 150 0 -4 55 c-10 126 -133 191 -248 133z m166 -62 c19 -19
34 -43 34 -55 0 -20 -5 -21 -125 -21 l-125 0 11 27 c22 59 57 81 128 82 36 1
48 -4 77 -33z"/>
<path d="M13730 9145 l0 -185 25 0 25 0 0 105 c0 117 13 163 53 190 33 21 100
22 132 1 38 -25 45 -54 45 -182 l0 -114 25 0 25 0 0 138 c0 120 -3 141 -20
170 -46 75 -161 82 -232 14 l-28 -26 0 37 c0 33 -3 37 -25 37 l-25 0 0 -185z"/>
<path d="M14520 9308 c-135 -69 -131 -277 7 -334 62 -26 147 -16 199 25 20 15
21 21 11 36 -12 16 -15 16 -48 -4 -50 -31 -128 -29 -167 4 -17 14 -35 39 -41
55 l-10 30 151 0 150 0 -4 55 c-10 126 -133 191 -248 133z m166 -62 c19 -19
34 -43 34 -55 0 -20 -5 -21 -125 -21 l-125 0 11 27 c22 59 57 81 128 82 36 1
48 -4 77 -33z"/>
<path d="M14870 9145 l0 -185 25 0 25 0 0 105 c0 69 5 118 14 140 15 35 59 65
96 65 16 0 20 6 20 30 0 17 -5 30 -10 30 -25 0 -78 -30 -98 -55 l-22 -28 0 42
c0 37 -2 41 -25 41 l-25 0 0 -185z"/>
<path d="M5755 9175 c-49 -48 -16 -125 54 -125 81 0 107 106 34 139 -37 17
-62 13 -88 -14z"/>
<path d="M6155 9118 c-51 -27 -60 -84 -20 -123 30 -30 64 -32 99 -4 42 33 35
99 -15 124 -33 18 -38 18 -64 3z"/>
</g>
</svg>
