<?xml version="1.0" standalone="no"?>
<!DOCTYPE svg PUBLIC "-//W3C//DTD SVG 20010904//EN"
 "http://www.w3.org/TR/2001/REC-SVG-20010904/DTD/svg10.dtd">
<svg version="1.0" xmlns="http://www.w3.org/2000/svg"
 width="2000.000000pt" height="2000.000000pt" viewBox="0 0 2000.000000 2000.000000"
 preserveAspectRatio="xMidYMid meet">
<metadata>
Created by potrace 1.11, written by Peter Selinger 2001-2013
</metadata>
<g transform="translate(0.000000,2000.000000) scale(0.100000,-0.100000)"
fill="#000000" stroke="none">
<path d="M1685 19134 c-27 -8 -59 -16 -70 -18 -94 -19 -252 -62 -264 -73 -9
-7 -55 -41 -103 -76 -89 -64 -104 -80 -196 -211 -50 -70 -56 -86 -83 -203 -16
-71 -36 -155 -44 -189 -13 -53 -15 -1044 -15 -8367 l0 -8307 30 -123 c17 -67
33 -133 35 -147 11 -60 35 -121 62 -156 75 -99 103 -138 103 -145 0 -6 186
-148 228 -173 12 -7 138 -39 194 -50 24 -4 99 -24 133 -35 11 -3 3737 -7 8280
-8 l8260 -3 123 30 c68 16 136 32 152 35 16 3 39 9 52 14 24 9 32 11 46 11 4
0 57 36 117 80 72 52 123 98 148 132 106 149 118 170 132 230 18 74 17 68 46
183 l24 90 2 8324 3 8323 -31 132 c-17 72 -32 138 -34 146 -12 61 -31 111 -58
150 -17 25 -33 47 -36 50 -4 3 -23 30 -44 61 -36 52 -74 85 -214 182 -45 31
-97 51 -193 71 -25 6 -84 19 -126 29 -12 3 -39 10 -60 16 -28 8 -2431 11
-8294 10 -7055 -1 -8262 -3 -8305 -15z"/>
</g>
</svg>
